<svg width="86" height="29" viewBox="0 0 86 29" fill="none" xmlns="http://www.w3.org/2000/svg">
<g clip-path="url(#clip0_42_1265)">
<path d="M10.6524 16.6298C9.10481 16.5842 8.92592 16.5877 8.88204 15.564C8.81622 14.0575 8.68965 12.5492 9.22969 11.0391C9.78573 9.39138 10.6696 7.88422 11.8236 6.61608C14.5407 3.66972 18.3598 1.4661 23.7079 0.426625C26.7271 -0.161592 29.8492 -0.114186 32.8937 0.40204C36.3713 0.964523 39.7544 2.03813 42.9418 3.5907C47.3702 5.78203 50.8045 8.48257 53.8203 11.4184C56.1121 13.6483 58.2166 15.9398 60.3767 18.2154C60.7157 18.6087 61.0917 18.9658 61.499 19.2812C61.8939 19.5639 61.7268 19.9203 61.6087 20.2329C61.5598 20.3593 61.5901 20.4945 61.4821 20.6279C61.0957 20.5085 61.1024 20.2592 60.9623 20.059C58.7111 16.8696 56.1084 13.9655 53.2077 11.4061C51.8677 10.2156 50.3252 9.11117 48.7456 8.02604C45.7585 5.96991 42.3106 4.30886 38.2401 3.14296C36.4452 2.63571 34.6071 2.31111 32.7519 2.17372C31.6803 2.08944 30.6154 1.95247 29.5319 1.98057C26.0385 2.07714 22.7172 2.50733 19.7943 3.78385C18.0799 4.51644 16.5288 5.60843 15.2377 6.99183C13.8216 8.49468 12.7231 10.2889 12.0126 12.2594C11.562 13.4886 11.3375 14.7458 11.4877 16.0118C11.5215 16.2909 11.378 16.4788 10.9815 16.6052L10.6524 16.6298Z" fill="#040405"/>
<path d="M5.75987 19.5078C4.96947 19.5137 4.18144 19.4169 3.41406 19.2198C2.72511 19.0392 2.07521 18.7246 1.4986 18.2927C0.167062 17.2954 -0.126586 15.4921 0.767859 13.8029C1.03166 13.3238 1.38653 12.9056 1.81081 12.5738C1.91525 12.4812 2.04666 12.428 2.18378 12.4228C2.24217 12.4225 2.30001 12.4346 2.35371 12.4585C2.40741 12.4824 2.45583 12.5174 2.49599 12.5615C2.59725 12.6739 2.72214 12.9127 2.42005 13.213L2.38967 13.2446C2.0711 13.5946 1.82573 14.0095 1.66905 14.4631C1.5403 14.7928 1.48979 15.1498 1.52182 15.5041C1.55384 15.8583 1.66744 16.1993 1.85301 16.4982C2.30698 17.2128 3.17105 17.6817 4.16337 17.7519C4.33214 17.7642 4.5009 17.7694 4.66966 17.7694C5.54939 17.7456 6.4261 17.6523 7.29224 17.4903C7.7344 17.4183 8.19175 17.3463 8.64235 17.2919L8.69972 17.2058L9.06088 17.125H9.071C10.0836 16.9846 11.0827 16.6492 12.0446 16.3261L12.6454 16.1242C15.1887 15.2884 17.8771 14.2981 20.2937 12.7283C21.1139 12.2016 21.8784 11.6362 22.2193 10.6722C22.4624 9.98215 22.3678 9.5941 21.8329 9.08139C21.2253 8.49668 20.525 8.08405 19.7841 7.64684C19.4077 7.4256 19.0179 7.19558 18.6483 6.94449C17.0012 5.82951 15.7793 4.72682 15.192 2.97095C15.1138 2.7081 15.0723 2.43489 15.0688 2.15974C15.0634 1.92562 15.0323 1.69292 14.976 1.46617L14.8292 0.895508L15.3355 1.15889C15.7489 1.39345 16.0975 1.73442 16.3481 2.1492C16.4105 2.237 16.473 2.32479 16.5388 2.41083C16.6653 2.57412 16.8004 2.73742 16.932 2.89545C17.4484 3.51352 17.9834 4.1544 18.1623 5.07273C18.2635 5.59949 18.7394 5.79615 19.244 6.00861L19.3217 6.04197C19.6778 6.19122 20.0355 6.3352 20.395 6.47742C21.3916 6.85124 22.3631 7.29413 23.3028 7.80312C24.6208 8.55463 25.1896 9.98039 24.6276 11.1182C24.2555 11.8563 23.7331 12.5011 23.0969 13.0075C20.8422 14.8354 18.2585 15.9504 15.3591 17.118C13.4673 17.8783 11.4438 18.6579 9.3444 19.0776C8.16539 19.339 6.96513 19.483 5.75987 19.5078Z" fill="#AF1A18"/>
<path d="M15.2306 1.38718C15.7976 1.67865 16.0373 2.16153 16.3512 2.56713C16.9621 3.35728 17.7148 4.03855 17.9223 5.11665C18.059 5.819 18.6919 6.04552 19.237 6.27729C20.5652 6.83742 21.9372 7.30624 23.1911 8.03317C24.3944 8.71971 24.9024 10.0068 24.4113 10.9971C24.0575 11.7021 23.5591 12.3177 22.9515 12.8004C20.6445 14.6704 17.9696 15.7853 15.2778 16.8722C13.3269 17.6483 11.3558 18.3998 9.3053 18.8054C8.13979 19.0658 6.95307 19.2098 5.76127 19.2356C4.9913 19.2417 4.22362 19.1473 3.47622 18.9547C2.81872 18.7845 2.19803 18.4867 1.64683 18.0768C0.342288 17.0987 0.202214 15.4184 0.990338 13.9276C1.23868 13.479 1.57162 13.0872 1.96916 12.7758C2.02901 12.7214 2.10424 12.6887 2.18349 12.6827C2.20748 12.6821 2.23133 12.6867 2.25345 12.6964C2.27557 12.7061 2.29544 12.7206 2.31175 12.7389C2.42989 12.8688 2.28138 12.9759 2.20206 13.0637C1.86046 13.4397 1.5973 13.885 1.42912 14.3719C0.754069 16.356 2.24594 17.8836 4.14452 18.01C4.32341 18.0223 4.50061 18.0276 4.67613 18.0276C6.0718 18.0276 7.42021 17.687 8.79395 17.536C8.81926 17.536 8.83951 17.471 8.86314 17.4359L9.11628 17.3797C10.3634 17.2041 11.5414 16.7599 12.7329 16.3683C15.4095 15.4904 18.0439 14.5 20.4386 12.9443C21.2824 12.3983 22.1009 11.7978 22.4638 10.7565C22.7456 9.95759 22.6207 9.46419 22.0132 8.87949C21.0597 7.96468 19.8648 7.44144 18.7932 6.71626C17.3536 5.74175 16.0406 4.66013 15.4398 2.87617C15.2711 2.40033 15.3791 1.9315 15.2272 1.38718H15.2306ZM14.4239 0.384583L14.7412 1.53292C14.7909 1.74104 14.8186 1.95417 14.8239 2.16855C14.8293 2.46657 14.8759 2.76224 14.9622 3.04648C15.6373 5.07627 17.1562 6.23164 18.5181 7.15347C18.8944 7.40807 19.2876 7.63985 19.6657 7.85582C20.3947 8.28601 21.0833 8.69162 21.6706 9.26052C22.133 9.70476 22.1988 9.97341 21.9895 10.5669C21.6773 11.4448 20.95 11.9821 20.1669 12.4984C17.7755 14.0541 15.104 15.0373 12.5726 15.8679L11.9701 16.0698C10.9761 16.4052 10.036 16.723 9.04371 16.8599H9.02346H9.00321L8.76863 16.9126H8.75007L8.55261 16.9565L8.50536 17.0303C8.08177 17.0829 7.66154 17.1497 7.25314 17.2058C6.40046 17.3732 5.53664 17.4718 4.66937 17.5008C4.50061 17.5008 4.33185 17.5008 4.17152 17.485C3.25851 17.4236 2.4687 16.9987 2.05692 16.349C1.89383 16.0838 1.79444 15.7817 1.76712 15.4682C1.7398 15.1546 1.78537 14.8388 1.89997 14.5475C2.04629 14.1285 2.2731 13.7449 2.56659 13.4202L2.59021 13.3974C3.0965 12.8899 2.74547 12.458 2.67291 12.3772C2.60928 12.3068 2.53238 12.2508 2.447 12.2127C2.36163 12.1747 2.26962 12.1553 2.17674 12.156C1.9827 12.1609 1.79596 12.2339 1.64683 12.3631C1.19585 12.7165 0.818615 13.1616 0.538053 13.6713C-0.418834 15.4833 -0.0964965 17.4253 1.34305 18.5017C1.94549 18.9532 2.62461 19.2821 3.34458 19.4709C4.13219 19.6746 4.9413 19.7743 5.75283 19.7677C6.97734 19.7432 8.19683 19.5974 9.39474 19.3322C11.5161 18.9073 13.5497 18.1242 15.4533 17.3586C18.3713 16.1839 20.9736 15.0602 23.2553 13.2095C23.9212 12.6809 24.4673 12.0065 24.8551 11.2341C25.4812 9.96462 24.8686 8.38785 23.4291 7.5661C22.4785 7.0515 21.4958 6.60391 20.4875 6.22637C20.1365 6.0859 19.7737 5.94016 19.421 5.79267L19.3416 5.75931C18.81 5.53631 18.4826 5.37477 18.4134 5.01482C18.2211 4.02977 17.6641 3.36254 17.1258 2.71638C16.9908 2.55484 16.8625 2.40032 16.7393 2.24053C16.6786 2.16152 16.6195 2.07723 16.5554 1.98769C16.2806 1.53834 15.8994 1.1701 15.4483 0.918364L14.4205 0.391602L14.4239 0.384583Z" fill="white"/>
<path d="M25.1153 16.2559C24.4251 19.1934 22.6902 21.5867 21.2068 24.296C22.4472 23.7236 23.5846 23.2425 24.8909 23.7499C24.7381 22.6364 24.77 21.5038 24.9854 20.4015C25.1781 19.36 25.5056 18.3505 25.9591 17.4007C25.922 19.355 25.9169 21.3022 26.187 23.2161C26.4199 24.8684 26.4199 26.6928 28.0434 27.7516C28.1682 27.8323 28.2121 27.9359 28.1514 28.0167C28.1051 28.0734 28.04 28.1099 27.969 28.119C27.8981 28.1281 27.8264 28.1091 27.7683 28.0659C26.8131 27.4355 25.9507 26.6875 25.4967 25.5831C24.9111 24.1626 24.55 23.9536 23.102 24.3364C22.3814 24.526 21.6371 24.6384 20.9367 24.886C20.665 24.9843 20.4406 25.3302 20.2617 25.6112C19.6731 26.6112 18.9871 27.5456 18.2146 28.3995C17.683 28.9666 17.0754 29.1387 16.4055 28.9052C15.884 28.7296 15.4233 27.4302 15.5178 26.8087C15.5633 26.5049 15.7422 26.4399 15.9093 26.5523C17.1531 27.3863 17.9598 26.447 18.7124 25.7218C20.5688 23.9396 21.8481 21.7043 23.1425 19.4744C23.777 18.3857 24.1078 17.1075 25.1153 16.2559Z" fill="#AF1A18"/>
<path d="M15.5481 28.9895H15.1566C13.0757 29.0035 13.0538 29.0105 12.318 27.4882C11.2043 25.1889 10.2916 22.7901 9.59078 20.3207C9.51315 20.0486 9.59078 19.7536 9.57221 19.4691C9.55196 18.8212 10.2962 19.2303 10.6304 19.0266C10.8633 18.8862 11.0421 19.1583 11.1012 19.4094C11.7206 22.0801 12.5998 24.7016 13.5516 27.3108C13.8605 28.1607 14.4815 28.7085 15.5481 28.9895Z" fill="#AF1A18"/>
<path d="M63.2051 20.8194C63.5426 21.5112 63.9899 22.1802 64.2177 22.9036C64.6902 24.4154 65.6066 25.6428 66.9179 26.6173C68.0824 27.4952 69.2401 27.641 70.3455 26.238C71.0121 25.3917 71.4526 24.4927 71.4357 23.4286C71.4357 23.023 71.6348 22.7438 72.1377 22.8474C72.5917 22.9387 72.7909 23.2249 72.644 23.6358C72.0922 25.1266 71.3564 26.5453 69.9556 27.511C68.6663 28.3995 67.6976 28.389 66.3306 27.3548C65.382 26.6113 64.5706 25.6951 63.9359 24.6507C63.6709 24.2328 63.4498 23.7868 63.1477 23.3935C62.4929 22.5437 63.1174 21.7061 63.0144 20.8651L63.2051 20.8194Z" fill="#AF1A18"/>
<path d="M42.8101 24.0923C42.6881 24.2378 42.6001 24.4106 42.553 24.5973C42.5059 24.7841 42.5009 24.9796 42.5384 25.1686C42.6464 26.0185 42.3696 26.8315 42.3494 27.6708C42.3494 28.0044 42.1941 28.3591 41.7317 28.266C41.1562 28.1519 41.4549 27.7726 41.5241 27.4794C41.8617 26.0747 42.3106 24.6893 41.6591 23.2512C41.4617 22.8158 41.1275 22.5173 40.8153 22.1872C40.5976 21.9536 40.309 21.7289 40.6331 21.39C40.9571 21.0511 41.163 21.3479 41.4009 21.5656C43.0025 23.0159 44.4741 24.6313 46.3052 25.792C46.8402 26.1326 47.3937 26.4381 47.9253 26.784C48.4569 27.13 48.6004 26.8385 48.6004 26.3626C48.5902 24.8666 48.7539 23.3531 48.246 21.9027C48.1835 21.7271 48.1245 21.5796 48.3118 21.4883C48.5818 21.3584 48.8468 21.1372 49.1691 21.2794C49.3176 21.3408 49.3379 21.455 49.3379 21.6657C49.3379 23.5374 48.9295 25.4039 49.2704 27.2845C49.3446 27.6848 49.3851 28.1168 48.8265 28.352C48.2122 28.6084 48.2915 28.0009 48.0924 27.8042C47.4173 27.1019 46.5128 26.7911 45.7297 26.2678C44.7374 25.5971 43.6927 25.0194 42.8101 24.0923Z" fill="#AF1A18"/>
<path d="M76.4362 24.8983C77.2649 25.7428 78.1087 26.5979 78.9458 27.4601C79.123 27.6357 79.452 27.8235 79.042 28.1027C78.7551 28.2959 78.5542 28.4311 78.2386 28.0062C77.594 27.1405 76.8311 26.3714 76.1156 25.5637C75.962 25.3881 75.8 25.1915 75.5485 25.3197C75.3275 25.4338 75.4355 25.6708 75.4321 25.864C75.4203 26.5663 75.4321 27.2687 75.4237 27.971C75.4237 28.1256 75.5114 28.3363 75.3005 28.4258C75.0254 28.5399 74.8347 28.2959 74.6254 28.1993C74.5869 28.1843 74.5519 28.1608 74.523 28.1304C74.494 28.1 74.4718 28.0633 74.4578 28.0231C74.4439 27.9828 74.4385 27.9399 74.4421 27.8972C74.4456 27.8546 74.4581 27.8133 74.4786 27.7761C75.0979 26.1186 74.6068 24.3873 74.757 22.6964C74.7722 22.5331 74.7807 22.3768 74.5579 22.2838C74.512 22.2642 74.4723 22.2318 74.4432 22.1901C74.414 22.1484 74.3966 22.099 74.3929 22.0476C74.3893 21.9962 74.3994 21.9447 74.4223 21.8989C74.4452 21.8532 74.4799 21.815 74.5225 21.7886C75.2633 21.3057 76.0295 20.7632 76.9476 20.93C77.6935 21.0652 77.9602 21.7219 78.0311 22.4593C78.1003 23.2793 77.8302 23.9448 77.1636 24.4049C76.9341 24.5524 76.6354 24.5787 76.4362 24.8983ZM77.2379 22.8439C77.0691 22.2785 77.1569 21.6376 76.5004 21.6148C76.1223 21.6025 75.665 21.6973 75.6161 22.1924C75.5587 22.7894 75.5924 23.3935 75.4473 23.9887C75.3882 24.2187 75.3916 24.5348 75.7848 24.4804C76.4109 24.3926 77.2514 23.3706 77.2379 22.8439Z" fill="#AF1A18"/>
<path d="M63.8093 28.0939C63.303 28.108 63.0009 27.971 62.876 27.439C62.5908 26.2274 61.8145 25.6831 60.6079 25.6199C59.2578 25.5409 58.905 25.7305 58.3937 27.3055C58.1861 27.9447 57.8958 28.3924 57.16 28.273C57.0216 28.2502 56.8714 28.273 56.8731 28.0588C56.8731 27.95 56.8613 27.8446 56.9795 27.7603C58.1608 26.9193 58.4004 25.4549 59.0367 24.2626C59.5058 23.3847 60.1691 22.4945 59.818 21.3303C59.7522 21.1126 60.1016 21.1108 60.2416 20.9791C60.4779 20.7702 60.6062 20.9791 60.7176 21.1319C61.0112 21.5112 61.1158 21.994 61.3234 22.4137C62.1841 24.1485 62.8608 25.9974 64.135 27.4829C64.1995 27.5376 64.2467 27.6112 64.2705 27.6942C64.2942 27.7772 64.2935 27.8657 64.2683 27.9482C64.1671 28.2151 63.9207 28.0202 63.8093 28.0939ZM61.747 25.0861L60.5555 22.6279L59.4383 25.0861H61.747Z" fill="#AF1A18"/>
<path d="M83.2812 28.0957C81.8602 28.0957 81.1362 27.4215 80.716 25.7867C80.311 24.2065 81.391 22.1363 82.8593 21.6798C83.8229 21.3795 85.3047 21.7974 85.7705 23.2811C86.4151 25.3408 85.6405 27.3196 84.2364 27.9236C83.9334 28.0512 83.6077 28.1098 83.2812 28.0957ZM85.2135 24.9826C85.2135 24.8368 85.2135 24.6893 85.2135 24.5436C85.1967 23.2881 84.5992 22.4559 83.6052 22.3048C82.7496 22.1749 82.0593 22.7579 81.6729 23.9343C81.6374 24.0397 81.6003 24.1432 81.5699 24.2486C81.2628 25.3127 81.9547 26.9526 82.8643 27.3196C84.1064 27.8236 85.2135 26.7226 85.2135 24.9826Z" fill="#AF1A18"/>
<path d="M39.2746 28.2327C37.7388 29.1106 35.7305 28.173 35.631 26.3416C35.5702 25.2266 35.5044 24.0941 35.7677 22.9738C35.9111 22.4099 36.2197 21.9064 36.6507 21.5333C37.0816 21.1601 37.6135 20.9358 38.1725 20.8914C38.5286 20.8808 38.8797 21.016 38.8898 21.3251C38.9016 21.7026 38.4898 21.5902 38.2367 21.599C37.1211 21.6341 36.1626 23.0248 36.4461 24.1661C36.5237 24.4804 36.7161 24.4031 36.8899 24.4049C37.5009 24.4154 38.1135 24.4049 38.824 24.4049C38.3413 25.0791 37.7068 25.1318 37.1009 25.0879C36.495 25.044 36.3904 25.3162 36.4512 25.8377C36.5912 27.051 37.2123 27.7112 38.397 27.9236C38.696 28.0057 38.9892 28.1089 39.2746 28.2327Z" fill="#AF1A18"/>
<path d="M56.3432 21.4252C55.95 22.1275 55.3796 22.182 54.794 22.1275C54.2084 22.0731 54.0379 22.1943 53.9502 22.8861C53.8152 24.0485 53.8472 25.2003 53.8303 26.3557C53.8135 27.3583 54.0227 27.6006 54.9897 27.662C55.0488 27.6575 55.108 27.6693 55.1613 27.6961C55.2146 27.7229 55.2602 27.7638 55.2935 27.8148C55.4218 28.0237 55.2446 28.1537 55.1129 28.2257C54.745 28.4258 54.3704 28.6049 53.9485 28.3258C53.4793 28.0185 52.9207 27.7586 52.9899 27.0615C53.1215 25.7622 53.1266 24.4611 53.1671 23.1582C53.1924 22.3593 52.9882 22.0503 52.1832 22.1047C51.7849 22.1346 51.0204 22.4436 51.0289 21.7412C51.0289 21.1794 51.7714 21.4533 52.1782 21.4427C53.5468 21.4041 54.9087 21.4252 56.3432 21.4252Z" fill="#AF1A18"/>
<path d="M33.9181 27.1985C33.7881 27.9219 33.6919 28.3257 32.8228 28.1501C31.9755 27.96 31.0963 27.9896 30.2626 28.2362C29.7445 28.403 29.6872 27.871 29.7277 27.5145C29.9521 25.5339 30.0483 23.5568 29.6011 21.5972C29.4863 21.0951 29.9066 21.0424 30.0871 20.8001C30.1379 20.7206 30.2142 20.6627 30.3024 20.6366C30.3906 20.6105 30.4848 20.6181 30.5681 20.6578C30.9056 20.851 30.72 21.1354 30.7183 21.3971C30.7183 22.3312 30.7183 23.2653 30.7183 24.2065C30.7183 25.044 30.7453 25.8781 30.5614 26.7086C30.428 27.3108 30.5917 27.6462 31.3225 27.6006C32.1937 27.5125 33.06 27.3783 33.9181 27.1985Z" fill="#AF1A18"/>
<path d="M77.2378 22.8439C77.253 23.3707 76.4125 24.3944 75.778 24.4839C75.3848 24.5383 75.3814 24.2223 75.4405 23.9923C75.5924 23.397 75.5586 22.793 75.6092 22.196C75.6582 21.7008 76.1155 21.606 76.4936 21.6183C77.1551 21.6359 77.069 22.2768 77.2378 22.8439Z" fill="white"/>
<path d="M61.747 25.0862H59.4384L60.5556 22.6279L61.747 25.0862Z" fill="white"/>
<path d="M85.2136 24.9825C85.2136 26.7226 84.1066 27.8235 82.8645 27.3196C81.9548 26.9526 81.2629 25.3127 81.57 24.2486C81.6004 24.1432 81.6375 24.0396 81.673 23.9343C82.0595 22.7579 82.7497 22.1784 83.6053 22.3048C84.5993 22.4558 85.1968 23.2881 85.2136 24.5436C85.2153 24.6893 85.2136 24.8368 85.2136 24.9825Z" fill="white"/>
</g>
<defs>
<clipPath id="clip0_42_1265">
<rect width="86" height="29" fill="white"/>
</clipPath>
</defs>
</svg>
